<mxfile host="app.diagrams.net" agent="Mozilla/5.0 (Windows NT 10.0; Win64; x64) AppleWebKit/537.36 (KHTML, like Gecko) Chrome/136.0.0.0 Safari/537.36" version="27.1.1">
  <diagram name="Page-1" id="HMPfCda5-Rbk8ReLYjIE">
    <mxGraphModel dx="2775" dy="1392" grid="1" gridSize="10" guides="1" tooltips="1" connect="1" arrows="1" fold="1" page="1" pageScale="1" pageWidth="850" pageHeight="1100" math="0" shadow="0">
      <root>
        <mxCell id="0" />
        <mxCell id="1" parent="0" />
        <mxCell id="4XzjhvApJ-53mnKWm9ov-24" value="" style="whiteSpace=wrap;html=1;aspect=fixed;" parent="1" vertex="1">
          <mxGeometry x="104" y="110" width="350" height="350" as="geometry" />
        </mxCell>
        <mxCell id="4XzjhvApJ-53mnKWm9ov-26" style="edgeStyle=orthogonalEdgeStyle;rounded=0;orthogonalLoop=1;jettySize=auto;html=1;" parent="1" source="4XzjhvApJ-53mnKWm9ov-20" target="4XzjhvApJ-53mnKWm9ov-8" edge="1">
          <mxGeometry relative="1" as="geometry" />
        </mxCell>
        <mxCell id="4XzjhvApJ-53mnKWm9ov-28" value="&lt;font style=&quot;font-size: 12px;&quot;&gt;&lt;b&gt;Wi-Fi&lt;/b&gt;&lt;/font&gt;" style="edgeLabel;html=1;align=center;verticalAlign=middle;resizable=0;points=[];" parent="4XzjhvApJ-53mnKWm9ov-26" vertex="1" connectable="0">
          <mxGeometry x="-0.5848" relative="1" as="geometry">
            <mxPoint as="offset" />
          </mxGeometry>
        </mxCell>
        <mxCell id="4XzjhvApJ-53mnKWm9ov-20" value="" style="rounded=0;whiteSpace=wrap;html=1;" parent="1" vertex="1">
          <mxGeometry x="200" y="320" width="160" height="100" as="geometry" />
        </mxCell>
        <mxCell id="4XzjhvApJ-53mnKWm9ov-22" style="edgeStyle=orthogonalEdgeStyle;rounded=0;orthogonalLoop=1;jettySize=auto;html=1;" parent="1" source="4XzjhvApJ-53mnKWm9ov-21" edge="1">
          <mxGeometry relative="1" as="geometry">
            <mxPoint x="280" y="320" as="targetPoint" />
          </mxGeometry>
        </mxCell>
        <mxCell id="4XzjhvApJ-53mnKWm9ov-23" value="&lt;font style=&quot;font-size: 12px;&quot;&gt;&lt;b&gt;KABEL&lt;/b&gt;&lt;/font&gt;" style="edgeLabel;html=1;align=center;verticalAlign=middle;resizable=0;points=[];" parent="4XzjhvApJ-53mnKWm9ov-22" vertex="1" connectable="0">
          <mxGeometry x="-0.1335" y="1" relative="1" as="geometry">
            <mxPoint as="offset" />
          </mxGeometry>
        </mxCell>
        <mxCell id="4XzjhvApJ-53mnKWm9ov-21" value="" style="rounded=0;whiteSpace=wrap;html=1;" parent="1" vertex="1">
          <mxGeometry x="200" y="140" width="160" height="120" as="geometry" />
        </mxCell>
        <mxCell id="4XzjhvApJ-53mnKWm9ov-4" value="&lt;font style=&quot;font-size: 14px;&quot;&gt;&lt;b&gt;Sensor Suhu&lt;/b&gt;&lt;/font&gt;" style="sketch=0;outlineConnect=0;fontColor=#232F3E;gradientColor=none;fillColor=#1A1A1A;strokeColor=none;dashed=0;verticalLabelPosition=bottom;verticalAlign=top;align=center;html=1;fontSize=12;fontStyle=0;aspect=fixed;pointerEvents=1;shape=mxgraph.aws4.iot_thing_temperature_humidity_sensor;" parent="1" vertex="1">
          <mxGeometry x="240" y="150" width="78" height="78" as="geometry" />
        </mxCell>
        <mxCell id="4XzjhvApJ-53mnKWm9ov-7" value="&lt;font style=&quot;font-size: 14px;&quot;&gt;&lt;b&gt;ESP 32&lt;/b&gt;&lt;/font&gt;" style="shape=mxgraph.cisco.misc.mcu;html=1;pointerEvents=1;dashed=0;fillColor=#036897;strokeColor=#ffffff;strokeWidth=2;verticalLabelPosition=bottom;verticalAlign=top;align=center;outlineConnect=0;" parent="1" vertex="1">
          <mxGeometry x="251" y="330" width="56" height="64" as="geometry" />
        </mxCell>
        <mxCell id="4XzjhvApJ-53mnKWm9ov-31" style="edgeStyle=orthogonalEdgeStyle;rounded=0;orthogonalLoop=1;jettySize=auto;html=1;" parent="1" source="4XzjhvApJ-53mnKWm9ov-8" edge="1">
          <mxGeometry relative="1" as="geometry">
            <mxPoint x="280" y="620" as="targetPoint" />
          </mxGeometry>
        </mxCell>
        <mxCell id="4XzjhvApJ-53mnKWm9ov-8" value="&lt;h4&gt;&lt;font style=&quot;color: rgb(0, 0, 0); font-weight: normal;&quot;&gt;Internet&lt;/font&gt;&lt;/h4&gt;" style="html=1;outlineConnect=0;fillColor=#CCCCCC;strokeColor=#6881B3;gradientColor=none;gradientDirection=north;strokeWidth=2;shape=mxgraph.networks.cloud;fontColor=#ffffff;" parent="1" vertex="1">
          <mxGeometry x="235" y="530" width="90" height="50" as="geometry" />
        </mxCell>
        <mxCell id="4XzjhvApJ-53mnKWm9ov-9" value="&lt;font style=&quot;color: rgb(0, 0, 0);&quot;&gt;Broker MQTT&lt;br&gt;Dalam Tugas ini menggunakan Blynk&amp;nbsp;&lt;/font&gt;" style="fontColor=#0066CC;verticalAlign=top;verticalLabelPosition=bottom;labelPosition=center;align=center;html=1;outlineConnect=0;fillColor=#CCCCCC;strokeColor=#6881B3;gradientColor=none;gradientDirection=north;strokeWidth=2;shape=mxgraph.networks.server;" parent="1" vertex="1">
          <mxGeometry x="251" y="630" width="65" height="72.22" as="geometry" />
        </mxCell>
        <mxCell id="4XzjhvApJ-53mnKWm9ov-16" value="" style="group" parent="1" vertex="1" connectable="0">
          <mxGeometry x="540" y="640" width="230" height="158.5" as="geometry" />
        </mxCell>
        <mxCell id="4XzjhvApJ-53mnKWm9ov-33" style="edgeStyle=orthogonalEdgeStyle;rounded=0;orthogonalLoop=1;jettySize=auto;html=1;" parent="4XzjhvApJ-53mnKWm9ov-16" source="4XzjhvApJ-53mnKWm9ov-10" edge="1">
          <mxGeometry relative="1" as="geometry">
            <mxPoint x="-210" y="33" as="targetPoint" />
          </mxGeometry>
        </mxCell>
        <mxCell id="4XzjhvApJ-53mnKWm9ov-35" value="&lt;b&gt;Publish (Data Sensor)&lt;/b&gt;&lt;div&gt;&lt;b&gt;Subscribe (Perintah Control)&lt;/b&gt;&lt;/div&gt;" style="edgeLabel;html=1;align=center;verticalAlign=middle;resizable=0;points=[];" parent="4XzjhvApJ-53mnKWm9ov-33" vertex="1" connectable="0">
          <mxGeometry x="0.0705" y="-1" relative="1" as="geometry">
            <mxPoint x="12" y="1" as="offset" />
          </mxGeometry>
        </mxCell>
        <mxCell id="4XzjhvApJ-53mnKWm9ov-10" value="" style="fontColor=#0066CC;verticalAlign=top;verticalLabelPosition=bottom;labelPosition=center;align=center;html=1;outlineConnect=0;fillColor=#CCCCCC;strokeColor=#6881B3;gradientColor=none;gradientDirection=north;strokeWidth=2;shape=mxgraph.networks.laptop;" parent="4XzjhvApJ-53mnKWm9ov-16" vertex="1">
          <mxGeometry width="120" height="66" as="geometry" />
        </mxCell>
        <mxCell id="4XzjhvApJ-53mnKWm9ov-11" value="" style="fontColor=#0066CC;verticalAlign=top;verticalLabelPosition=bottom;labelPosition=center;align=center;html=1;outlineConnect=0;fillColor=#CCCCCC;strokeColor=#6881B3;gradientColor=none;gradientDirection=north;strokeWidth=2;shape=mxgraph.networks.mobile;" parent="4XzjhvApJ-53mnKWm9ov-16" vertex="1">
          <mxGeometry x="155" y="8.5" width="30" height="60" as="geometry" />
        </mxCell>
        <mxCell id="4XzjhvApJ-53mnKWm9ov-15" value="Aplikasi Monitoring" style="text;html=1;align=center;verticalAlign=middle;whiteSpace=wrap;rounded=0;" parent="4XzjhvApJ-53mnKWm9ov-16" vertex="1">
          <mxGeometry y="68.5" width="230" height="38.5" as="geometry" />
        </mxCell>
        <mxCell id="4XzjhvApJ-53mnKWm9ov-25" value="&lt;font style=&quot;font-size: 18px;&quot;&gt;&lt;b&gt;Perangkat IOT&lt;/b&gt;&lt;/font&gt;" style="text;html=1;align=center;verticalAlign=middle;whiteSpace=wrap;rounded=0;" parent="1" vertex="1">
          <mxGeometry x="204" y="110" width="150" height="30" as="geometry" />
        </mxCell>
      </root>
    </mxGraphModel>
  </diagram>
</mxfile>
